Coordinates
version=1
nRows=65
nColumns=12
inDegrees=yes

Units are S.I. units (second, meters, Newtons, ...)
Angles are in degrees

endheader
time	SC_y	SC_z	SC_x	AC_y	AC_z	AC_x	GH_y	GH_z	GH_yy	EL_x	PS_y
       0.0              -56.37          16.38          17.93           43.9         -8.573         -17.62         -61.43          21.77          139.4          114.6          130.8
   0.04439              -56.37          16.38          17.93           43.9         -8.573         -17.62          -61.4          21.77          139.3          114.6          130.8
   0.08878              -56.37          16.38          17.94           43.9         -8.574         -17.61         -61.37          21.78          139.3          114.6          130.8
    0.1332              -56.37          16.38          17.94          43.89         -8.575         -17.61         -61.34          21.78          139.2          114.6          130.7
    0.1776              -56.37          16.38          17.95          43.89         -8.576          -17.6         -61.31          21.78          139.2          114.6          130.7
     0.222              -56.37          16.37          17.96          43.89         -8.577         -17.59         -61.27          21.78          139.1          114.6          130.7
    0.2664              -56.37          16.37          17.97          43.89         -8.579         -17.58         -61.23          21.78          139.1          114.6          130.7
    0.3107              -56.37          16.37          17.98          43.89          -8.58         -17.58         -61.19          21.79          139.0          114.6          130.7
    0.3551              -56.37          16.37          17.99          43.88         -8.581         -17.57         -61.15          21.79          139.0          114.6          130.7
    0.3995              -56.37          16.36           18.0          43.88         -8.583         -17.56          -61.1          21.79          138.9          114.6          130.7
    0.4439              -56.37          16.36          18.01          43.88         -8.584         -17.55         -61.05           21.8          138.8          114.6          130.6
    0.4883              -56.37          16.36          18.02          43.87         -8.586         -17.54         -60.99           21.8          138.7          114.6          130.6
    0.5327              -56.37          16.35          18.03          43.87         -8.588         -17.53         -60.94          21.81          138.6          114.6          130.6
    0.5771              -56.37          16.35          18.04          43.87         -8.589         -17.52         -60.87          21.81          138.5          114.6          130.6
    0.6215              -56.36          16.35          18.06          43.86         -8.592          -17.5          -60.8          21.81          138.4          114.6          130.5
    0.6659              -56.36          16.34          18.07          43.86         -8.594         -17.49         -60.73          21.82          138.3          114.6          130.5
    0.7103              -56.36          16.34          18.09          43.86         -8.596         -17.47         -60.65          21.83          138.2          114.6          130.5
    0.7547              -56.36          16.33          18.11          43.85         -8.599         -17.46         -60.56          21.83          138.1          114.6          130.5
    0.7991              -56.36          16.33          18.13          43.85         -8.602         -17.44         -60.46          21.84          137.9          114.6          130.4
    0.8434              -56.36          16.32          18.15          43.84         -8.605         -17.42         -60.36          21.85          137.8          114.6          130.4
    0.8878              -56.36          16.31          18.18          43.83         -8.609          -17.4         -60.24          21.85          137.6          114.6          130.3
    0.9322              -56.36          16.31          18.21          43.83         -8.612         -17.37         -60.12          21.86          137.4          114.5          130.3
    0.9766              -56.35           16.3          18.24          43.82         -8.617         -17.34         -59.98          21.87          137.2          114.5          130.2
     1.021              -56.35          16.29          18.27          43.81         -8.621         -17.31         -59.82          21.88          137.0          114.5          130.2
     1.065              -56.35          16.28          18.31           43.8         -8.627         -17.28         -59.65          21.89          136.7          114.5          130.1
      1.11              -56.35          16.27          18.35          43.79         -8.633         -17.24         -59.46          21.91          136.4          114.5          130.0
     1.154              -56.35          16.26          18.39          43.78         -8.639          -17.2         -59.24          21.92          136.1          114.5          130.0
     1.199              -56.34          16.24          18.45          43.77         -8.647         -17.16          -59.0          21.94          135.7          114.5          129.9
     1.243              -56.34          16.23           18.5          43.75         -8.655          -17.1         -58.72          21.96          135.3          114.5          129.8
     1.287              -56.34          16.21          18.57          43.74         -8.664         -17.04         -58.41          21.98          134.8          114.4          129.6
     1.332              -56.33          16.19          18.65          43.72         -8.675         -16.97         -58.05           22.0          134.3          114.4          129.5
     1.376              -56.33          16.17          18.73          43.69         -8.688          -16.9         -57.64          22.03          133.7          114.4          129.4
     1.421              -56.32          16.14          18.84          43.67         -8.702         -16.81         -57.17          22.07          133.0          114.4          129.2
     1.465              -56.31          16.11          18.95          43.64         -8.719          -16.7         -56.62           22.1          132.1          114.3          129.0
     1.509              -56.31          16.07          19.09           43.6         -8.738         -16.58         -55.98          22.15          131.2          114.3          128.7
     1.554               -56.3          16.03          19.25          43.56         -8.761         -16.43         -55.23           22.2          130.0          114.3          128.4
     1.598              -56.29          15.98          19.44          43.51         -8.789         -16.26         -54.33          22.26          128.7          114.2          128.1
     1.642              -56.27          15.91          19.67          43.46         -8.822         -16.05         -53.25          22.34          127.1          114.1          127.7
     1.687              -56.26          15.84          19.95          43.39         -8.861          -15.8         -51.95          22.43          125.1          114.1          127.2
     1.731              -56.24          15.75          20.29           43.3          -8.91          -15.5         -50.36          22.54          122.7          114.0          126.6
     1.776              -56.21          15.64          20.71          43.19          -8.97         -15.12         -48.39          22.67          119.7          113.9          125.9
      1.82              -56.18           15.5          21.24          43.06         -9.044         -14.65         -45.94          22.84          116.0          113.7          125.0
     1.864              -56.15          15.32           21.9          42.89         -9.138         -14.06         -42.85          23.06          111.4          113.5          123.8
     1.909               -56.1          15.09          22.74          42.68         -9.258          -13.3         -38.93          23.33          105.5          113.3          122.3
     1.953              -56.04          14.81          23.81          42.41          -9.41         -12.34         -33.91          23.68          97.89          113.0          120.4
     1.998              -55.96          14.44          25.19          42.06         -9.607          -11.1         -27.47          24.13          88.17          112.6          118.0
     2.042              -55.86          13.97          26.95          41.62         -9.857         -9.522         -19.23           24.7          75.76          112.1          114.9
     2.086              -55.73          13.37          29.16          41.06         -10.17         -7.535         -8.883          25.41          60.16          111.5          111.0
     2.131              -55.58          12.65          31.86          40.38         -10.56         -5.113           3.73          26.29          41.14          110.8          106.3
     2.175               -55.4          11.81          34.99          39.59          -11.0         -2.306          18.35           27.3           19.1          109.9          100.8
      2.22              -55.21          10.91          38.38          38.73         -11.48         0.7333          34.18           28.4          -4.77          109.0          94.83
     2.264              -55.01           10.0          41.76          37.88         -11.97          3.773          50.01           29.5         -28.64          108.1          88.88
     2.308              -54.83          9.165          44.89          37.09         -12.41           6.58          64.63          30.51         -50.68          107.2          83.38
     2.353              -54.68          8.443          47.59          36.41          -12.8          9.001          77.25          31.38          -69.7          106.4          78.63
     2.397              -54.55           7.85           49.8          35.85         -13.11          10.99           87.6           32.1          -85.3          105.8          74.74
     2.442              -54.45          7.379          51.56           35.4         -13.36          12.57          95.83          32.67         -97.71          105.3          71.65
     2.486              -54.37           7.01          52.94          35.05         -13.56          13.81          102.3          33.12         -107.4          105.0          69.22
      2.53              -54.31          6.722          54.01          34.78         -13.71          14.77          107.3          33.47         -115.0          104.7          67.33
     2.575              -54.27          6.498          54.85          34.57         -13.83          15.52          111.2          33.74         -120.9          104.4          65.86
     2.619              -54.23          6.321          55.51           34.4         -13.92          16.12          114.3          33.95         -125.6          104.3           64.7
     2.664               -54.2          6.181          56.04          34.27          -14.0          16.59          116.8          34.12         -129.3          104.1          63.78
     2.708              -54.17          6.068          56.46          34.16         -14.06          16.96          118.7          34.26         -132.2          104.0          63.04
     2.752              -54.15          5.977           56.8          34.08         -14.11          17.27          120.3          34.37         -134.6          103.9          62.44
     2.797              -54.14          5.903          57.08          34.01         -14.15          17.52          121.6          34.46         -136.6          103.8          61.95
     2.841              -54.13          5.841          57.31          33.95         -14.18          17.73          122.7          34.53         -138.2          103.8          61.55
